# Blender 4.2.1 LTS
# www.blender.org
mtllib 无标题.mtl
o Cube.001
v 0.700000 0.500000 -0.700000
v 1.000000 -0.000000 -1.000000
v 0.700000 0.500000 0.700000
v 1.000000 0.000000 1.000000
v -0.700000 0.500000 -0.700000
v -1.000000 -0.000000 -1.000000
v -0.700000 0.500000 0.700000
v -1.000000 0.000000 1.000000
v 1.000000 0.500000 1.000000
v -1.000000 0.500000 1.000000
v 1.000000 0.500000 -1.000000
v -1.000000 0.500000 -1.000000
v 0.700000 1.000000 -0.700000
v 0.700000 1.000000 0.700000
v -0.700000 1.000000 -0.700000
v -0.700000 1.000000 0.700000
v 0.000000 1.250000 -0.500000
v 0.000000 1.250000 0.500000
v 0.048773 1.245196 -0.500000
v 0.048773 1.245196 0.500000
v 0.095671 1.230970 -0.500000
v 0.095671 1.230970 0.500000
v 0.138893 1.207867 -0.500000
v 0.138893 1.207867 0.500000
v 0.176777 1.176777 -0.500000
v 0.176777 1.176777 0.500000
v 0.207867 1.138893 -0.500000
v 0.207867 1.138893 0.500000
v 0.230970 1.095671 -0.500000
v 0.230970 1.095671 0.500000
v 0.245196 1.048773 -0.500000
v 0.245196 1.048773 0.500000
v 0.250000 1.000000 -0.500000
v 0.250000 1.000000 0.500000
v 0.245196 0.951227 -0.500000
v 0.245196 0.951227 0.500000
v 0.230970 0.904329 -0.500000
v 0.230970 0.904329 0.500000
v 0.207867 0.861107 -0.500000
v 0.207867 0.861107 0.500000
v 0.176777 0.823223 -0.500000
v 0.176777 0.823223 0.500000
v 0.138893 0.792133 -0.500000
v 0.138893 0.792133 0.500000
v 0.095671 0.769030 -0.500000
v 0.095671 0.769030 0.500000
v 0.048773 0.754804 -0.500000
v 0.048773 0.754804 0.500000
v 0.000000 0.750000 -0.500000
v 0.000000 0.750000 0.500000
v -0.048773 0.754804 -0.500000
v -0.048773 0.754804 0.500000
v -0.095671 0.769030 -0.500000
v -0.095671 0.769030 0.500000
v -0.138893 0.792133 -0.500000
v -0.138893 0.792133 0.500000
v -0.176777 0.823223 -0.500000
v -0.176777 0.823223 0.500000
v -0.207867 0.861107 -0.500000
v -0.207867 0.861107 0.500000
v -0.230970 0.904329 -0.500000
v -0.230970 0.904329 0.500000
v -0.245196 0.951227 -0.500000
v -0.245196 0.951227 0.500000
v -0.250000 1.000000 -0.500000
v -0.250000 1.000000 0.500000
v -0.245196 1.048773 -0.500000
v -0.245196 1.048773 0.500000
v -0.230970 1.095671 -0.500000
v -0.230970 1.095671 0.500000
v -0.207867 1.138893 -0.500000
v -0.207867 1.138893 0.500000
v -0.176777 1.176777 -0.500000
v -0.176777 1.176777 0.500000
v -0.138893 1.207867 -0.500000
v -0.138893 1.207867 0.500000
v -0.095671 1.230970 -0.500000
v -0.095671 1.230970 0.500000
v -0.048773 1.245196 -0.500000
v -0.048773 1.245196 0.500000
v -0.200000 1.000000 0.200000
v 0.200000 1.000000 0.200000
v -0.200000 1.000000 -0.200000
v 0.200000 1.000000 -0.200000
v -0.200000 2.000000 0.200000
v 0.200000 2.000000 0.200000
v -0.200000 2.000000 -0.200000
v 0.200000 2.000000 -0.200000
v 0.000000 2.250000 -0.250000
v 0.000000 2.250000 0.250000
v 0.048773 2.245196 -0.250000
v 0.048773 2.245196 0.250000
v 0.095671 2.230970 -0.250000
v 0.095671 2.230970 0.250000
v 0.138893 2.207867 -0.250000
v 0.138893 2.207867 0.250000
v 0.176777 2.176777 -0.250000
v 0.176777 2.176777 0.250000
v 0.207867 2.138893 -0.250000
v 0.207867 2.138893 0.250000
v 0.230970 2.095671 -0.250000
v 0.230970 2.095671 0.250000
v 0.245196 2.048773 -0.250000
v 0.245196 2.048773 0.250000
v 0.250000 2.000000 -0.250000
v 0.250000 2.000000 0.250000
v 0.245196 1.951227 -0.250000
v 0.245196 1.951227 0.250000
v 0.230970 1.904329 -0.250000
v 0.230970 1.904329 0.250000
v 0.207867 1.861107 -0.250000
v 0.207867 1.861107 0.250000
v 0.176777 1.823223 -0.250000
v 0.176777 1.823223 0.250000
v 0.138893 1.792133 -0.250000
v 0.138893 1.792133 0.250000
v 0.095671 1.769030 -0.250000
v 0.095671 1.769030 0.250000
v 0.048773 1.754804 -0.250000
v 0.048773 1.754804 0.250000
v 0.000000 1.750000 -0.250000
v 0.000000 1.750000 0.250000
v -0.048773 1.754804 -0.250000
v -0.048773 1.754804 0.250000
v -0.095671 1.769030 -0.250000
v -0.095671 1.769030 0.250000
v -0.138893 1.792133 -0.250000
v -0.138893 1.792133 0.250000
v -0.176777 1.823223 -0.250000
v -0.176777 1.823223 0.250000
v -0.207867 1.861107 -0.250000
v -0.207867 1.861107 0.250000
v -0.230970 1.904329 -0.250000
v -0.230970 1.904329 0.250000
v -0.245196 1.951227 -0.250000
v -0.245196 1.951227 0.250000
v -0.250000 2.000000 -0.250000
v -0.250000 2.000000 0.250000
v -0.245196 2.048773 -0.250000
v -0.245196 2.048773 0.250000
v -0.230970 2.095671 -0.250000
v -0.230970 2.095671 0.250000
v -0.207867 2.138893 -0.250000
v -0.207867 2.138893 0.250000
v -0.176777 2.176777 -0.250000
v -0.176777 2.176777 0.250000
v -0.138893 2.207867 -0.250000
v -0.138893 2.207867 0.250000
v -0.095671 2.230970 -0.250000
v -0.095671 2.230970 0.250000
v -0.048773 2.245196 -0.250000
v -0.048773 2.245196 0.250000
v -0.195739 1.967486 0.160000
v 0.030535 2.193760 0.160000
v -0.195739 1.967486 -0.160000
v 0.030535 2.193760 -0.160000
v -0.761424 2.533171 0.160000
v -0.535150 2.759445 0.160000
v -0.761424 2.533171 -0.160000
v -0.535150 2.759445 -0.160000
v -0.719477 2.967103 -0.250000
v -0.719477 2.967103 0.250000
v -0.670705 2.962299 -0.250000
v -0.670705 2.962299 0.250000
v -0.623806 2.948073 -0.250000
v -0.623806 2.948073 0.250000
v -0.580585 2.924970 -0.250000
v -0.580585 2.924970 0.250000
v -0.542701 2.893880 -0.250000
v -0.542701 2.893879 0.250000
v -0.511610 2.855995 -0.250000
v -0.511610 2.855995 0.250000
v -0.488507 2.812774 -0.250000
v -0.488507 2.812773 0.250000
v -0.474281 2.765875 -0.250000
v -0.474281 2.765875 0.250000
v -0.469477 2.717103 -0.250000
v -0.469477 2.717103 0.250000
v -0.474281 2.668330 -0.250000
v -0.474281 2.668330 0.250000
v -0.488507 2.621432 -0.250000
v -0.488507 2.621432 0.250000
v -0.511610 2.578210 -0.250000
v -0.511610 2.578210 0.250000
v -0.542701 2.540326 -0.250000
v -0.542701 2.540326 0.250000
v -0.580585 2.509235 -0.250000
v -0.580585 2.509235 0.250000
v -0.623806 2.486133 -0.250000
v -0.623806 2.486133 0.250000
v -0.670705 2.471906 -0.250000
v -0.670705 2.471906 0.250000
v -0.719477 2.467103 -0.250000
v -0.719477 2.467103 0.250000
v -0.768250 2.471906 -0.250000
v -0.768250 2.471906 0.250000
v -0.815148 2.486133 -0.250000
v -0.815148 2.486133 0.250000
v -0.858370 2.509235 -0.250000
v -0.858370 2.509235 0.250000
v -0.896254 2.540326 -0.250000
v -0.896254 2.540326 0.250000
v -0.927345 2.578210 -0.250000
v -0.927345 2.578210 0.250000
v -0.950447 2.621432 -0.250000
v -0.950447 2.621432 0.250000
v -0.964674 2.668330 -0.250000
v -0.964674 2.668330 0.250000
v -0.969477 2.717103 -0.250000
v -0.969477 2.717103 0.250000
v -0.964674 2.765875 -0.250000
v -0.964674 2.765875 0.250000
v -0.950447 2.812774 -0.250000
v -0.950447 2.812773 0.250000
v -0.927345 2.855995 -0.250000
v -0.927345 2.855995 0.250000
v -0.896254 2.893880 -0.250000
v -0.896254 2.893879 0.250000
v -0.858370 2.924970 -0.250000
v -0.858370 2.924970 0.250000
v -0.815148 2.948073 -0.250000
v -0.815148 2.948073 0.250000
v -0.768250 2.962299 -0.250000
v -0.768250 2.962299 0.250000
v -1.741302 2.154792 0.120000
v -1.605558 1.956869 0.120000
v -1.741302 2.154792 -0.120000
v -1.605558 1.956869 -0.120000
v -0.834154 2.776953 0.120000
v -0.698410 2.579029 0.120000
v -0.834154 2.776953 -0.120000
v -0.698410 2.579029 -0.120000
v -1.906238 2.041672 0.120000
v -1.770494 1.843749 0.120000
v -1.906238 2.041672 -0.120000
v -1.770494 1.843749 -0.120000
v -1.741302 2.154792 0.220000
v -1.605558 1.956869 0.220000
v -1.906238 2.041672 0.220000
v -1.770494 1.843749 0.220000
v -1.605558 1.956869 -0.220000
v -1.741302 2.154792 -0.220000
v -1.770494 1.843749 -0.220000
v -1.906238 2.041672 -0.220000
v -1.935429 1.730629 -0.120000
v -2.071173 1.928552 -0.120000
v -1.935429 1.730629 -0.220000
v -2.071173 1.928552 -0.220000
v -2.071173 1.928552 0.120000
v -1.935429 1.730629 0.120000
v -2.071173 1.928552 0.220000
v -1.935429 1.730629 0.220000
vn -1.0000 -0.0000 -0.0000
vn -0.0000 -0.0000 1.0000
vn -0.0000 -1.0000 -0.0000
vn 1.0000 -0.0000 -0.0000
vn -0.0000 -0.0000 -1.0000
vn -0.0000 1.0000 -0.0000
vn 0.0980 0.9952 -0.0000
vn 0.2903 0.9569 -0.0000
vn 0.4714 0.8819 -0.0000
vn 0.6344 0.7730 -0.0000
vn 0.7730 0.6344 -0.0000
vn 0.8819 0.4714 -0.0000
vn 0.9569 0.2903 -0.0000
vn 0.9952 0.0980 -0.0000
vn 0.9952 -0.0980 -0.0000
vn 0.9569 -0.2903 -0.0000
vn 0.8819 -0.4714 -0.0000
vn 0.7730 -0.6344 -0.0000
vn 0.6344 -0.7730 -0.0000
vn 0.4714 -0.8819 -0.0000
vn 0.2903 -0.9569 -0.0000
vn 0.0980 -0.9952 -0.0000
vn -0.0980 -0.9952 -0.0000
vn -0.2903 -0.9569 -0.0000
vn -0.4714 -0.8819 -0.0000
vn -0.6344 -0.7730 -0.0000
vn -0.7730 -0.6344 -0.0000
vn -0.8819 -0.4714 -0.0000
vn -0.9569 -0.2903 -0.0000
vn -0.9952 -0.0980 -0.0000
vn -0.9952 0.0980 -0.0000
vn -0.9569 0.2903 -0.0000
vn -0.8819 0.4714 -0.0000
vn -0.7730 0.6344 -0.0000
vn -0.6344 0.7730 -0.0000
vn -0.4714 0.8819 -0.0000
vn -0.2903 0.9569 -0.0000
vn -0.0980 0.9952 -0.0000
vn 0.7071 -0.7071 -0.0000
vn -0.7071 0.7071 -0.0000
vn 0.7071 0.7071 -0.0000
vn -0.7071 -0.7071 -0.0000
vn -0.5656 0.8247 -0.0000
vn 0.8247 0.5656 -0.0000
vn 0.5656 -0.8247 -0.0000
vn -0.8247 -0.5656 -0.0000
vt 0.837500 0.537500
vt 0.837500 0.712500
vt 0.375000 0.750000
vt 0.625000 0.750000
vt 0.625000 1.000000
vt 0.375000 1.000000
vt 0.375000 0.000000
vt 0.625000 0.000000
vt 0.625000 0.250000
vt 0.375000 0.250000
vt 0.125000 0.500000
vt 0.375000 0.500000
vt 0.125000 0.750000
vt 0.625000 0.500000
vt 0.662500 0.712500
vt 0.875000 0.750000
vt 0.662500 0.537500
vt 0.875000 0.500000
vt 1.000000 0.500000
vt 1.000000 1.000000
vt 0.968750 1.000000
vt 0.968750 0.500000
vt 0.937500 1.000000
vt 0.937500 0.500000
vt 0.906250 1.000000
vt 0.906250 0.500000
vt 0.875000 1.000000
vt 0.843750 1.000000
vt 0.843750 0.500000
vt 0.812500 1.000000
vt 0.812500 0.500000
vt 0.781250 1.000000
vt 0.781250 0.500000
vt 0.750000 1.000000
vt 0.750000 0.500000
vt 0.718750 1.000000
vt 0.718750 0.500000
vt 0.687500 1.000000
vt 0.687500 0.500000
vt 0.656250 1.000000
vt 0.656250 0.500000
vt 0.593750 1.000000
vt 0.593750 0.500000
vt 0.562500 1.000000
vt 0.562500 0.500000
vt 0.531250 1.000000
vt 0.531250 0.500000
vt 0.500000 1.000000
vt 0.500000 0.500000
vt 0.468750 1.000000
vt 0.468750 0.500000
vt 0.437500 1.000000
vt 0.437500 0.500000
vt 0.406250 1.000000
vt 0.406250 0.500000
vt 0.343750 1.000000
vt 0.343750 0.500000
vt 0.312500 1.000000
vt 0.312500 0.500000
vt 0.281250 1.000000
vt 0.281250 0.500000
vt 0.250000 1.000000
vt 0.250000 0.500000
vt 0.218750 1.000000
vt 0.218750 0.500000
vt 0.187500 1.000000
vt 0.187500 0.500000
vt 0.156250 1.000000
vt 0.156250 0.500000
vt 0.125000 1.000000
vt 0.093750 1.000000
vt 0.093750 0.500000
vt 0.062500 1.000000
vt 0.062500 0.500000
vt 0.296822 0.485388
vt 0.250000 0.490000
vt 0.203178 0.485388
vt 0.158156 0.471731
vt 0.116663 0.449553
vt 0.080294 0.419706
vt 0.050447 0.383337
vt 0.028269 0.341844
vt 0.014612 0.296822
vt 0.010000 0.250000
vt 0.014612 0.203178
vt 0.028269 0.158156
vt 0.050447 0.116663
vt 0.080294 0.080294
vt 0.116663 0.050447
vt 0.158156 0.028269
vt 0.203178 0.014612
vt 0.250000 0.010000
vt 0.296822 0.014612
vt 0.341844 0.028269
vt 0.383337 0.050447
vt 0.419706 0.080294
vt 0.449553 0.116663
vt 0.471731 0.158156
vt 0.485388 0.203178
vt 0.490000 0.250000
vt 0.485388 0.296822
vt 0.471731 0.341844
vt 0.449553 0.383337
vt 0.419706 0.419706
vt 0.383337 0.449553
vt 0.341844 0.471731
vt 0.031250 1.000000
vt 0.031250 0.500000
vt 0.000000 1.000000
vt 0.000000 0.500000
vt 0.750000 0.490000
vt 0.796822 0.485388
vt 0.841844 0.471731
vt 0.883337 0.449553
vt 0.919706 0.419706
vt 0.949553 0.383337
vt 0.971731 0.341844
vt 0.985388 0.296822
vt 0.990000 0.250000
vt 0.985388 0.203178
vt 0.971731 0.158156
vt 0.949553 0.116663
vt 0.919706 0.080294
vt 0.883337 0.050447
vt 0.841844 0.028269
vt 0.796822 0.014612
vt 0.750000 0.010000
vt 0.703178 0.014612
vt 0.658156 0.028269
vt 0.616663 0.050447
vt 0.580294 0.080294
vt 0.550447 0.116663
vt 0.528269 0.158156
vt 0.514612 0.203178
vt 0.510000 0.250000
vt 0.514612 0.296822
vt 0.528269 0.341844
vt 0.550447 0.383337
vt 0.580294 0.419706
vt 0.616663 0.449553
vt 0.658156 0.471731
vt 0.703178 0.485388
vt 0.000000 0.000000
vt 1.000000 0.000000
s 0
usemtl Material.001
f 5/1/1 7/2/1 16/2/1 15/1/1
f 4/3/2 9/4/2 10/5/2 8/6/2
f 8/7/1 10/8/1 12/9/1 6/10/1
f 6/11/3 2/12/3 4/3/3 8/13/3
f 2/12/4 11/14/4 9/4/4 4/3/4
f 6/10/5 12/9/5 11/14/5 2/12/5
f 3/15/6 7/2/6 10/16/6 9/4/6
f 1/17/6 3/15/6 9/4/6 11/14/6
f 7/2/6 5/1/6 12/18/6 10/16/6
f 5/1/6 1/17/6 11/14/6 12/18/6
f 13/17/6 15/1/6 16/2/6 14/15/6
f 7/2/2 3/15/2 14/15/2 16/2/2
f 1/17/5 5/1/5 15/1/5 13/17/5
f 3/15/4 1/17/4 13/17/4 14/15/4
f 17/19/7 18/20/7 20/21/7 19/22/7
f 19/22/8 20/21/8 22/23/8 21/24/8
f 21/24/9 22/23/9 24/25/9 23/26/9
f 23/26/10 24/25/10 26/27/10 25/18/10
f 25/18/11 26/27/11 28/28/11 27/29/11
f 27/29/12 28/28/12 30/30/12 29/31/12
f 29/31/13 30/30/13 32/32/13 31/33/13
f 31/33/14 32/32/14 34/34/14 33/35/14
f 33/35/15 34/34/15 36/36/15 35/37/15
f 35/37/16 36/36/16 38/38/16 37/39/16
f 37/39/17 38/38/17 40/40/17 39/41/17
f 39/41/18 40/40/18 42/5/18 41/14/18
f 41/14/19 42/5/19 44/42/19 43/43/19
f 43/43/20 44/42/20 46/44/20 45/45/20
f 45/45/21 46/44/21 48/46/21 47/47/21
f 47/47/22 48/46/22 50/48/22 49/49/22
f 49/49/23 50/48/23 52/50/23 51/51/23
f 51/51/24 52/50/24 54/52/24 53/53/24
f 53/53/25 54/52/25 56/54/25 55/55/25
f 55/55/26 56/54/26 58/6/26 57/12/26
f 57/12/27 58/6/27 60/56/27 59/57/27
f 59/57/28 60/56/28 62/58/28 61/59/28
f 61/59/29 62/58/29 64/60/29 63/61/29
f 63/61/30 64/60/30 66/62/30 65/63/30
f 65/63/31 66/62/31 68/64/31 67/65/31
f 67/65/32 68/64/32 70/66/32 69/67/32
f 69/67/33 70/66/33 72/68/33 71/69/33
f 71/69/34 72/68/34 74/70/34 73/11/34
f 73/11/35 74/70/35 76/71/35 75/72/35
f 75/72/36 76/71/36 78/73/36 77/74/36
f 20/75/2 18/76/2 80/77/2 78/78/2 76/79/2 74/80/2 72/81/2 70/82/2 68/83/2 66/84/2 64/85/2 62/86/2 60/87/2 58/88/2 56/89/2 54/90/2 52/91/2 50/92/2 48/93/2 46/94/2 44/95/2 42/96/2 40/97/2 38/98/2 36/99/2 34/100/2 32/101/2 30/102/2 28/103/2 26/104/2 24/105/2 22/106/2
f 77/74/37 78/73/37 80/107/37 79/108/37
f 79/108/38 80/107/38 18/109/38 17/110/38
f 17/111/5 19/112/5 21/113/5 23/114/5 25/115/5 27/116/5 29/117/5 31/118/5 33/119/5 35/120/5 37/121/5 39/122/5 41/123/5 43/124/5 45/125/5 47/126/5 49/127/5 51/128/5 53/129/5 55/130/5 57/131/5 59/132/5 61/133/5 63/134/5 65/135/5 67/136/5 69/137/5 71/138/5 73/139/5 75/140/5 77/141/5 79/142/5
f 81/143/3 83/109/3 84/20/3 82/144/3
f 85/143/6 86/144/6 88/20/6 87/109/6
f 82/144/4 84/20/4 88/20/4 86/144/4
f 83/109/1 81/143/1 85/143/1 87/109/1
f 84/20/5 83/109/5 87/109/5 88/20/5
f 81/143/2 82/144/2 86/144/2 85/143/2
f 89/19/7 90/20/7 92/21/7 91/22/7
f 91/22/8 92/21/8 94/23/8 93/24/8
f 93/24/9 94/23/9 96/25/9 95/26/9
f 95/26/10 96/25/10 98/27/10 97/18/10
f 97/18/11 98/27/11 100/28/11 99/29/11
f 99/29/12 100/28/12 102/30/12 101/31/12
f 101/31/13 102/30/13 104/32/13 103/33/13
f 103/33/14 104/32/14 106/34/14 105/35/14
f 105/35/15 106/34/15 108/36/15 107/37/15
f 107/37/16 108/36/16 110/38/16 109/39/16
f 109/39/17 110/38/17 112/40/17 111/41/17
f 111/41/18 112/40/18 114/5/18 113/14/18
f 113/14/19 114/5/19 116/42/19 115/43/19
f 115/43/20 116/42/20 118/44/20 117/45/20
f 117/45/21 118/44/21 120/46/21 119/47/21
f 119/47/22 120/46/22 122/48/22 121/49/22
f 121/49/23 122/48/23 124/50/23 123/51/23
f 123/51/24 124/50/24 126/52/24 125/53/24
f 125/53/25 126/52/25 128/54/25 127/55/25
f 127/55/26 128/54/26 130/6/26 129/12/26
f 129/12/27 130/6/27 132/56/27 131/57/27
f 131/57/28 132/56/28 134/58/28 133/59/28
f 133/59/29 134/58/29 136/60/29 135/61/29
f 135/61/30 136/60/30 138/62/30 137/63/30
f 137/63/31 138/62/31 140/64/31 139/65/31
f 139/65/32 140/64/32 142/66/32 141/67/32
f 141/67/33 142/66/33 144/68/33 143/69/33
f 143/69/34 144/68/34 146/70/34 145/11/34
f 145/11/35 146/70/35 148/71/35 147/72/35
f 147/72/36 148/71/36 150/73/36 149/74/36
f 92/75/2 90/76/2 152/77/2 150/78/2 148/79/2 146/80/2 144/81/2 142/82/2 140/83/2 138/84/2 136/85/2 134/86/2 132/87/2 130/88/2 128/89/2 126/90/2 124/91/2 122/92/2 120/93/2 118/94/2 116/95/2 114/96/2 112/97/2 110/98/2 108/99/2 106/100/2 104/101/2 102/102/2 100/103/2 98/104/2 96/105/2 94/106/2
f 149/74/37 150/73/37 152/107/37 151/108/37
f 151/108/38 152/107/38 90/109/38 89/110/38
f 89/111/5 91/112/5 93/113/5 95/114/5 97/115/5 99/116/5 101/117/5 103/118/5 105/119/5 107/120/5 109/121/5 111/122/5 113/123/5 115/124/5 117/125/5 119/126/5 121/127/5 123/128/5 125/129/5 127/130/5 129/131/5 131/132/5 133/133/5 135/134/5 137/135/5 139/136/5 141/137/5 143/138/5 145/139/5 147/140/5 149/141/5 151/142/5
f 153/143/39 155/109/39 156/20/39 154/144/39
f 157/143/40 158/144/40 160/20/40 159/109/40
f 154/144/41 156/20/41 160/20/41 158/144/41
f 155/109/42 153/143/42 157/143/42 159/109/42
f 156/20/5 155/109/5 159/109/5 160/20/5
f 153/143/2 154/144/2 158/144/2 157/143/2
f 161/19/7 162/20/7 164/21/7 163/22/7
f 163/22/8 164/21/8 166/23/8 165/24/8
f 165/24/9 166/23/9 168/25/9 167/26/9
f 167/26/10 168/25/10 170/27/10 169/18/10
f 169/18/11 170/27/11 172/28/11 171/29/11
f 171/29/12 172/28/12 174/30/12 173/31/12
f 173/31/13 174/30/13 176/32/13 175/33/13
f 175/33/14 176/32/14 178/34/14 177/35/14
f 177/35/15 178/34/15 180/36/15 179/37/15
f 179/37/16 180/36/16 182/38/16 181/39/16
f 181/39/17 182/38/17 184/40/17 183/41/17
f 183/41/18 184/40/18 186/5/18 185/14/18
f 185/14/19 186/5/19 188/42/19 187/43/19
f 187/43/20 188/42/20 190/44/20 189/45/20
f 189/45/21 190/44/21 192/46/21 191/47/21
f 191/47/22 192/46/22 194/48/22 193/49/22
f 193/49/23 194/48/23 196/50/23 195/51/23
f 195/51/24 196/50/24 198/52/24 197/53/24
f 197/53/25 198/52/25 200/54/25 199/55/25
f 199/55/26 200/54/26 202/6/26 201/12/26
f 201/12/27 202/6/27 204/56/27 203/57/27
f 203/57/28 204/56/28 206/58/28 205/59/28
f 205/59/29 206/58/29 208/60/29 207/61/29
f 207/61/30 208/60/30 210/62/30 209/63/30
f 209/63/31 210/62/31 212/64/31 211/65/31
f 211/65/32 212/64/32 214/66/32 213/67/32
f 213/67/33 214/66/33 216/68/33 215/69/33
f 215/69/34 216/68/34 218/70/34 217/11/34
f 217/11/35 218/70/35 220/71/35 219/72/35
f 219/72/36 220/71/36 222/73/36 221/74/36
f 164/75/2 162/76/2 224/77/2 222/78/2 220/79/2 218/80/2 216/81/2 214/82/2 212/83/2 210/84/2 208/85/2 206/86/2 204/87/2 202/88/2 200/89/2 198/90/2 196/91/2 194/92/2 192/93/2 190/94/2 188/95/2 186/96/2 184/97/2 182/98/2 180/99/2 178/100/2 176/101/2 174/102/2 172/103/2 170/104/2 168/105/2 166/106/2
f 221/74/37 222/73/37 224/107/37 223/108/37
f 223/108/38 224/107/38 162/109/38 161/110/38
f 161/111/5 163/112/5 165/113/5 167/114/5 169/115/5 171/116/5 173/117/5 175/118/5 177/119/5 179/120/5 181/121/5 183/122/5 185/123/5 187/124/5 189/125/5 191/126/5 193/127/5 195/128/5 197/129/5 199/130/5 201/131/5 203/132/5 205/133/5 207/134/5 209/135/5 211/136/5 213/137/5 215/138/5 217/139/5 219/140/5 221/141/5 223/142/5
f 239/143/43 233/143/43 249/143/43 251/143/43
f 229/143/44 230/144/44 232/20/44 231/109/44
f 226/144/45 228/20/45 232/20/45 230/144/45
f 227/109/43 225/143/43 229/143/43 231/109/43
f 228/20/5 227/109/5 231/109/5 232/20/5
f 225/143/2 226/144/2 230/144/2 229/143/2
f 233/143/46 235/109/46 236/20/46 234/144/46
f 228/20/45 226/144/45 234/144/45 236/20/45
f 225/143/43 227/109/43 235/109/43 233/143/43
f 235/109/43 227/109/43 242/109/43 244/109/43
f 238/144/2 237/143/2 239/143/2 240/144/2
f 225/143/43 233/143/43 239/143/43 237/143/43
f 226/144/44 225/143/44 237/143/44 238/144/44
f 234/144/45 226/144/45 238/144/45 240/144/45
f 242/109/5 241/20/5 243/20/5 244/109/5
f 236/20/2 235/109/2 246/109/2 245/20/2
f 228/20/45 236/20/45 243/20/45 241/20/45
f 227/109/44 228/20/44 241/20/44 242/109/44
f 245/20/46 246/109/46 248/109/46 247/20/46
f 235/109/43 244/109/43 248/109/43 246/109/43
f 244/109/5 243/20/5 247/20/5 248/109/5
f 243/20/45 236/20/45 245/20/45 247/20/45
f 249/143/46 250/144/46 252/144/46 251/143/46
f 240/144/2 239/143/2 251/143/2 252/144/2
f 233/143/5 234/144/5 250/144/5 249/143/5
f 234/144/45 240/144/45 252/144/45 250/144/45
